# xmcd
#
# Track frame offsets: 
#        150
#        4646
#        27840
#        41335
#        56975
#        65172
#        70083
#        92712
#        106393
#        119303
#        126244
#        130795
#        135313
#        162683
#        181416
#        196413
#        200861
#        206480
#        236301
#        247710
#        260503
#        265370
#        271933
#        293889
#        307755
#        323933
#
# Disc length: 4380 seconds
#
# Revision: 0
# Processed by: cddbd v1.5.2PL0 Copyright (c) Steve Scherf et al.
# Submitted via: ExactAudioCopy v1.0b1
#
DISCID=7f111a1a
DTITLE=Hank Williams - The Complete Mothers Best Recordings CD3
DYEAR=2010
DGENRE=Country
TTITLE0=Introduction
TTITLE1=May You Never Be Alone
TTITLE2=Audrey Williams and the Drifting Cowboys My Love for You (Has Tu
TTITLE2=rned to Hate)
TTITLE3=Audrey and the Drifting Cowboys Dear Brother
TTITLE4=Closing
TTITLE5=Introduction
TTITLE6=They'll Never Take Her Love from Me
TTITLE7=Audrey Williams and the Drifting Cowboys (Last Night) I Heard Yo
TTITLE7=u Crying in My Sleep
TTITLE8=Wait for the Light to Shine
TTITLE9=Jerry Rivers and the Drifting Cowboys Whistling Rufus
TTITLE10=Closing
TTITLE11=Introduction
TTITLE12=Pins and Needles (in My Heart)
TTITLE13=Audrey Williams and the Drifting Cowboys Four Flusher
TTITLE14=Audrey and the Drifting Cowboys I Heard My Mother Praying for
TTITLE14=Me
TTITLE15=Closing
TTITLE16=Introduction
TTITLE17=Cool Water
TTITLE18=Jerry Rivers and the Drifting Cowboys Orange Blossom Special
TTITLE19=Oh Those Tombs (Lonely Tombs)
TTITLE20=Closing
TTITLE21=Introduction
TTITLE22=I Just Don't Like This Kind of Living
TTITLE23=Audrey Williams and the Drifting Cowboys You Don't Have Be a Ba
TTITLE23=by to Cry
TTITLE24=Audrey Williams and the Drifting Cowboys Jesus Remembered Me
TTITLE25=Closing
EXTD=
EXTT0=
EXTT1=
EXTT2=
EXTT3=
EXTT4=
EXTT5=
EXTT6=
EXTT7=
EXTT8=
EXTT9=
EXTT10=
EXTT11=
EXTT12=
EXTT13=
EXTT14=
EXTT15=
EXTT16=
EXTT17=
EXTT18=
EXTT19=
EXTT20=
EXTT21=
EXTT22=
EXTT23=
EXTT24=
EXTT25=
PLAYORDER=
